<svg width="24" height="24" viewBox="0 0 24 24" fill="none" xmlns="http://www.w3.org/2000/svg">
<g id="Icon">
<mask id="mask0_308_6962" style="mask-type:alpha" maskUnits="userSpaceOnUse" x="0" y="0" width="24" height="24">
<rect id="Bounding box" width="24" height="24" fill="#D9D9D9"/>
</mask>
<g mask="url(#mask0_308_6962)">
<path id="api" d="M9.8752 8.1252L7.3752 5.6252L10.5752 2.4252C10.7752 2.2252 11.0002 2.0752 11.2502 1.9752C11.5002 1.8752 11.7502 1.8252 12.0002 1.8252C12.2502 1.8252 12.5002 1.8752 12.7502 1.9752C13.0002 2.0752 13.2252 2.2252 13.4252 2.4252L16.6252 5.6252L14.1252 8.1252L12.0002 6.0002L9.8752 8.1252ZM5.6252 16.6252L2.4252 13.4252C2.2252 13.2252 2.0752 13.0002 1.9752 12.7502C1.8752 12.5002 1.8252 12.2502 1.8252 12.0002C1.8252 11.7502 1.8752 11.5002 1.9752 11.2502C2.0752 11.0002 2.2252 10.7752 2.4252 10.5752L5.6252 7.3752L8.1252 9.8752L6.0002 12.0002L8.1252 14.1252L5.6252 16.6252ZM18.3752 16.6252L15.8752 14.1252L18.0002 12.0002L15.8752 9.8752L18.3752 7.3752L21.5752 10.5752C21.7752 10.7752 21.9252 11.0002 22.0252 11.2502C22.1252 11.5002 22.1752 11.7502 22.1752 12.0002C22.1752 12.2502 22.1252 12.5002 22.0252 12.7502C21.9252 13.0002 21.7752 13.2252 21.5752 13.4252L18.3752 16.6252ZM12.0002 22.1752C11.7502 22.1752 11.5002 22.1252 11.2502 22.0252C11.0002 21.9252 10.7752 21.7752 10.5752 21.5752L7.3752 18.3752L9.8752 15.8752L12.0002 18.0002L14.1252 15.8752L16.6252 18.3752L13.4252 21.5752C13.2252 21.7752 13.0002 21.9252 12.7502 22.0252C12.5002 22.1252 12.2502 22.1752 12.0002 22.1752ZM13.4252 12.0002C13.4252 12.3835 13.2835 12.7169 13.0002 13.0002C12.7169 13.2835 12.3835 13.4252 12.0002 13.4252C11.6169 13.4252 11.2835 13.2835 11.0002 13.0002C10.7169 12.7169 10.5752 12.3835 10.5752 12.0002C10.5752 11.6169 10.7169 11.2835 11.0002 11.0002C11.2835 10.7169 11.6169 10.5752 12.0002 10.5752C12.3835 10.5752 12.7169 10.7169 13.0002 11.0002C13.2835 11.2835 13.4252 11.6169 13.4252 12.0002Z" fill="#212529"/>
</g>
</g>
</svg>
